<svg xmlns="http://www.w3.org/2000/svg" width="148.81mm" height="21.83mm" viewBox="0 0 421.82 61.89">
  <g id="silfen_logo">
    <g>
      <path d="M421.82,60.53H411.54c-9.81,0-7.18.57-11.16-7.86-2-4.31-3.47-8.89-6.06-13.11V60.17h-17.7V.57c5.24,0,10.65-.14,16,.13.93.05,2.07,1.68,2.6,2.82a189.33,189.33,0,0,0,8.93,18V.8h17.63Z"/>
      <path d="M.59,38.76H21.35c0,2.75-.32,5.55.14,8.23.23,1.3,1.9,2.36,2.92,3.53,1-1.22,2.5-2.3,2.83-3.68,1.05-4.37-1.18-7.14-5.06-9-4.29-2-8.55-4.08-12.69-6.36C1.34,27-1.19,21.47.49,11.17,1.63,4.15,6.75.74,13.19.34,21-.13,29-.27,36.64,1c7.27,1.17,9.64,5.54,9.64,13.16,0,1.63,0,3.26,0,5.14h-20c0-2,.31-3.9-.1-5.59-.28-1.16-1.78-3.05-2.33-2.92-1.28.32-3.44,2.07-3.28,2.49.88,2.37,1.83,5.34,3.73,6.59,5.84,3.84,12.34,6.66,18.18,10.48,6.84,4.47,6.1,11.9,5.58,18.67-.43,5.63-3.87,9.52-9.62,10.9-10.37,2.5-20.77,3.43-30.57-1.73A13.68,13.68,0,0,1,1.85,51C.6,47.3,1,43,.59,38.76Z"/>
      <path d="M299.79,60.23V.9h36.35V15.26h-16.3v7.23h16.35V36.37H319.78v9.06h16.3v14.8Z"/>
      <path d="M225.08.65h35.17V16.38H245v7h15.3v15H244.84v21.7H225.08Z"/>
      <path d="M150.22,60.17V.79h19.52V42.47h18.88v17.7Z"/>
      <path d="M108.74,60.31H88.43V1h20.31Z"/>
    </g>
  </g>
</svg>
