<svg id="Lag_1" data-name="Lag 1" xmlns="http://www.w3.org/2000/svg" viewBox="0 0 422.67 61.83"><defs><style>.cls-1{fill:#7aaed4;}</style></defs><path class="cls-1" d="M376.81,1.28V60.54H394v-26a2.27,2.27,0,0,1,.56.86c3.17,8,6.36,16,9.49,24.06a1.6,1.6,0,0,0,1.81,1.2c5.16,0,10.32,0,15.48,0h1.29V1.35h-17.2V27.21a2.24,2.24,0,0,1-.71-1Q399.6,14.3,394.47,2.36a1.53,1.53,0,0,0-1.67-1.1c-3.84.06-7.68,0-11.52,0Zm-331.56,18c0-2.2.06-4.31,0-6.42C45,7.59,42.41,4.15,37.47,2.46c-.38-.13-.74-.29-1.12-.42C30.14-.08,23.74-.29,17.28.26a28.07,28.07,0,0,0-9.81,2.5C4.44,4.2,2,6.21,1,9.57A23.44,23.44,0,0,0,.54,21.3a13.46,13.46,0,0,0,7.37,9.26C13.06,33.27,18.2,36,23.4,38.65a7,7,0,0,1,4.08,6.51,19.39,19.39,0,0,1,0,2.64,6.56,6.56,0,0,1-.6,2.17c-.73,1.5-2.35,2.08-4.46,1.73-1.53-.25-2.23-.91-2.39-2.81-.18-2.35-.15-4.71-.2-7.06,0-.83,0-1.65,0-2.46H.53c.18,3.09.3,6.07.55,9.05.43,5.29,3.36,8.69,8.16,10.72a36.37,36.37,0,0,0,13.3,2.69c6.05.16,12-.48,17.55-3C43.89,57,46.3,54.3,46.84,50a35.75,35.75,0,0,0-.09-9.91c-.64-4.32-2.59-7.8-6.41-10q-4.65-2.71-9.42-5.23c-2.79-1.45-5.73-2.64-8.49-4.16s-4-5.94-2.53-8.83a3.55,3.55,0,0,1,4-1.71c1.48.23,2.05.81,2.22,2.64.16,1.63.12,3.27.16,4.91,0,.5,0,1,0,1.53ZM335.84,1.37h-35.6V60.51h35.59V46.62H318.88v-10h17V23.32h-17V15.18h17Zm-110.43,0V60.54H244V38.62h16.1V24.3H244V16.18H260.1V1.33Zm-37,42.3H168.93V1.38H150.41V60.54h38ZM88.57,1.34v59.2h19.48V1.34Z"/><path class="cls-1" d="M376.81,1.28h4.47c3.84,0,7.68,0,11.52,0a1.53,1.53,0,0,1,1.67,1.1q5.11,11.94,10.29,23.86a2.24,2.24,0,0,0,.71,1V1.35h17.2V60.6h-1.29c-5.16,0-10.32,0-15.48,0a1.6,1.6,0,0,1-1.81-1.2c-3.13-8-6.32-16-9.49-24.06a2.27,2.27,0,0,0-.56-.86v26H376.81Z"/><path class="cls-1" d="M45.25,19.24h-19c0-.54,0-1,0-1.53,0-1.64,0-3.28-.16-4.91C26,11,25.38,10.39,23.9,10.16a3.55,3.55,0,0,0-4,1.71c-1.44,2.89-.3,7.28,2.53,8.83s5.7,2.71,8.49,4.16q4.77,2.51,9.42,5.23c3.82,2.23,5.77,5.71,6.41,10A35.75,35.75,0,0,1,46.84,50c-.54,4.27-3,7-6.75,8.75-5.59,2.57-11.5,3.21-17.55,3a36.37,36.37,0,0,1-13.3-2.69c-4.8-2-7.73-5.43-8.16-10.72-.25-3-.37-6-.55-9.05H19.84c0,.81,0,1.63,0,2.46.05,2.35,0,4.71.2,7.06.16,1.9.86,2.56,2.39,2.81,2.11.35,3.73-.23,4.46-1.73a6.56,6.56,0,0,0,.6-2.17,19.39,19.39,0,0,0,0-2.64,7,7,0,0,0-4.08-6.51C18.2,36,13.06,33.27,7.91,30.56A13.46,13.46,0,0,1,.54,21.3,23.44,23.44,0,0,1,1,9.57C2,6.21,4.44,4.2,7.47,2.76A28.07,28.07,0,0,1,17.28.26C23.74-.29,30.14-.08,36.35,2c.38.13.74.29,1.12.42C42.41,4.15,45,7.59,45.23,12.82,45.31,14.93,45.25,17,45.25,19.24Z"/><path class="cls-1" d="M335.84,1.37v13.8h-17v8.14h17V36.66h-17v10h16.95V60.51H300.24V1.38Z"/><path class="cls-1" d="M225.41,1.33H260.1V16.18H244V24.3H260.1V38.62H244V60.54H225.41Z"/><path class="cls-1" d="M188.38,43.63V60.54h-38V1.38h18.52V43.63Z"/><path class="cls-1" d="M88.57,1.34h19.48v59.2H88.57Z"/></svg>