<svg id="Layer_1" data-name="Layer 1" xmlns="http://www.w3.org/2000/svg" viewBox="0 0 98.93 98.89"><defs><style>.cls-1{fill:#fff;}</style></defs><path d="M49.45,0A49.45,49.45,0,1,1,0,49.45,49.39,49.39,0,0,1,49.45,0ZM3.81,49.41A45.69,45.69,0,1,0,49.36,3.74,45.67,45.67,0,0,0,3.81,49.41Z"/><path class="cls-1" d="M3.81,49.41A45.69,45.69,0,1,1,49.3,95.14,45.63,45.63,0,0,1,3.81,49.41ZM61,32.73c-.09-3,.3-5.65-.28-8.36a57.64,57.64,0,0,0-9.29,0,8.86,8.86,0,0,0-8.32,7.5,43.25,43.25,0,0,0-.41,4.85c-.07.83.23,1.74-.44,2.42-1.4.48-2.92-.2-4.22.54a28,28,0,0,0,.1,9.47c1.35.67,3-.16,4.51.69,0,1.05.08,2.09.08,3.13,0,6.33,0,12.65,0,19,0,.83-.25,1.73.39,2.46a30.17,30.17,0,0,0,9.54-.1c0-.88.12-1.81.12-2.75,0-6.51,0-13,0-19.55,0-.82-.24-1.74.48-2.43,2.25-.48,4.58.22,7-.5.16-3.17.93-6.24.65-9.5-2.51-.61-5,.12-7.56-.52-.06-.94-.14-1.79-.15-2.63a9.88,9.88,0,0,1,.11-1.72,2,2,0,0,1,1.9-1.84,19.28,19.28,0,0,1,2-.06Z"/><path d="M61,32.73l-3.79.07a19.28,19.28,0,0,0-2,.06,2,2,0,0,0-1.9,1.84,9.88,9.88,0,0,0-.11,1.72c0,.84.09,1.69.15,2.63,2.52.64,5-.09,7.56.52.28,3.26-.49,6.33-.65,9.5-2.37.72-4.7,0-7,.5-.72.69-.48,1.61-.48,2.43,0,6.52,0,13,0,19.55,0,.94-.08,1.87-.12,2.75a30.17,30.17,0,0,1-9.54.1c-.64-.73-.39-1.63-.39-2.46,0-6.33,0-12.65,0-19,0-1,0-2.08-.08-3.13-1.51-.85-3.16,0-4.51-.69a28,28,0,0,1-.1-9.47c1.3-.74,2.82-.06,4.22-.54.67-.68.37-1.59.44-2.42a43.25,43.25,0,0,1,.41-4.85,8.86,8.86,0,0,1,8.32-7.5,57.64,57.64,0,0,1,9.29,0C61.32,27.08,60.93,29.72,61,32.73Z"/></svg>