<svg xmlns="http://www.w3.org/2000/svg" width="109.6mm" height="147.97mm" viewBox="0 0 310.67 419.44">
  <g id="icon_silfenplay">
    <g>
      <path d="M310.67,210.74V404c0,9.5-5.82,15.43-15.27,15.44q-140.11,0-280.23,0A14.82,14.82,0,0,1,0,404.25q0-194,0-388C0,6.67,6.83,0,16.57,0H295.3c9,0,15.36,6.4,15.36,15.49Q310.68,113.12,310.67,210.74ZM146.52,143.83c.77-3.22,1.73-5.7,1.91-8.24.35-4.89,2.78-5.88,7.41-5.85,41.95.19,83.91.11,125.87.11h5c0-31.08.49-61.46-.27-91.82-.25-10.15-5.55-17.13-16.25-17.13H40.46c-8.6,0-16.32,5.11-18.33,13.52-1.18,4.9-.25,10.31-.22,15.5q.49,88.53,1,177.07c.05,9.77,0,19.53,0,29.62H164.3c-.57,2.9-1.1,5.45-1.57,8-.83,4.47-3,6.15-8,6.12-42-.26-83.92-.15-125.88-.15H23.17c-.14,1.27-.25,1.77-.24,2.26.32,36.55.57,73.11,1,109.66.13,10.33,9.53,19.81,19.35,20,22.24.39,44.49.91,66.74,1,51,.15,101.9,0,152.85.07a40,40,0,0,1,5.88.52,17.42,17.42,0,0,0,20-17.06c0-20.31.09-40.62,0-60.92q-.44-89.29-1-178.58c0-1.11-.13-2.23-.22-3.68Z"/>
      <path d="M61.64,376.48c.36-4.15,2.41-5.14,6-5a52.64,52.64,0,0,0,12.21-1c5.64-1.15,8.24-4.11,8.61-10.25a4.14,4.14,0,0,0-4.38-4.69c-5.32-.05-10.66-.27-16,.14-1.45.11-3.4,1.95-4,3.44-3.62,9.05-7,18.2-10.28,27.36-1.31,3.64-3.17,5.69-7.47,5.08-3.25-.46-6.62-.09-10.5-.09,3.92-10.18,7.85-19.89,11.42-29.75,4.38-12.08,4.25-12.13,17.28-12.13,9.47,0,19,.49,28.42-.13s14.17,6,10.1,15.31c-3.27,7.5-9.17,11.41-17.25,11.66S69.92,376.48,61.64,376.48Z"/>
      <path d="M218.43,391.47h-7.65c-11.86,0-11.84,0-15.91-11-1.12-3.05-2.37-6.06-3.63-9.06s-2.54-5.91-4-9.35l-27.06,22.49.21,1.14h28c-.7,4.35-2.13,6-6.19,5.92-11.46-.32-22.94-.11-36-.11,6-5.13,11-9.46,16.06-13.66q13.44-11.13,27-22.13c2.28-1.85,4.72-3.5,7.1-5.21,2.72-2,5-.86,6.13,1.68,5.53,12.52,10.82,25.13,16.16,37.72C218.76,390.13,218.57,390.52,218.43,391.47Z"/>
      <path d="M146.52,385.55c-.19,4.87-2.35,6.17-6.68,6-10-.35-20-.08-29.93-.12-7.59,0-11.55-5-9.23-12.22,2.83-8.81,6.2-17.43,9.37-26.12.94-2.6,2.58-3.83,5.61-3.6,4.13.31,8.3.07,13,.07l-9.09,24.53c-.4,1.07-.79,2.13-1.13,3.21-2,6.32-.64,8.2,5.82,8.22C131.58,385.57,138.89,385.55,146.52,385.55Z"/>
      <path d="M227.89,391.47c1.74-4.55,3.64-8.55,4.74-12.77a13.27,13.27,0,0,0-.25-7.8c-2.29-5.58-5.31-10.86-8-16.28-.7-1.41-1.23-2.89-2.11-5,6.09,0,11.37-.18,16.63.14,1.18.07,2.63,1.69,3.31,2.95,2.93,5.45,5.62,11,8.46,16.68,10.17-6.36,17.95-15.67,28.75-20.44l1.08,1.44c-4.46,3.67-8.86,7.42-13.4,11-5.13,4-10.63,7.63-15.46,12-2,1.8-2.92,5-3.88,7.69-3.69,10.42-3.62,10.44-14.39,10.43Z"/>
    </g>
  </g>
</svg>
