<svg id="Layer_1" data-name="Layer 1" xmlns="http://www.w3.org/2000/svg" viewBox="0 0 98.93 98.92"><path d="M98.93,49.38A49.29,49.29,0,0,1,49.56,98.92C20.42,98.94.16,75.05,0,49.85a49.47,49.47,0,1,1,98.93-.47ZM49.37,3.76a45.72,45.72,0,1,0,45.8,45.46A45.6,45.6,0,0,0,49.37,3.76Z"/><path d="M49.53,24.75c4.31,0,8.63,0,12.94,0a11.31,11.31,0,0,1,7.45,2.58,11.68,11.68,0,0,1,4.36,9c0,1.24,0,2.49,0,3.74,0,7.09,0,14.19,0,21.29a18.42,18.42,0,0,1-.36,3.7,11.58,11.58,0,0,1-10.51,9.14c-.58,0-1.15,0-1.73,0-8.15,0-16.3,0-24.45,0A16,16,0,0,1,33,73.69a11.39,11.39,0,0,1-8.16-10.08c-.07-.86-.07-1.72-.07-2.58V38c0-.77,0-1.53,0-2.3A11.54,11.54,0,0,1,36,24.76H49.53Zm0,2.83h0c-4.51,0-9-.09-13.53,0a8.58,8.58,0,0,0-8.38,8c-.07.76-.06,1.53-.06,2.3q0,11.66,0,23.31c0,.76,0,1.53.07,2.3A8.5,8.5,0,0,0,33.82,71a15.09,15.09,0,0,0,4,.47c7.77,0,15.54,0,23.31,0,.67,0,1.34,0,2,0a8.81,8.81,0,0,0,8.13-7.31,18.78,18.78,0,0,0,.25-3.44c0-7.48,0-15,0-22.44a22.34,22.34,0,0,0-.1-2.59,8.81,8.81,0,0,0-1.72-4.51,8.66,8.66,0,0,0-7.19-3.57C58.17,27.6,53.85,27.58,49.54,27.58Z"/><path d="M65.37,49.6a15.92,15.92,0,1,1-31.84-.4,15.92,15.92,0,0,1,31.84.4ZM49.57,36.77A12.73,12.73,0,1,0,62.2,49.41,12.48,12.48,0,0,0,49.57,36.77Z"/><path d="M65.19,36.31a2.45,2.45,0,0,1-2.47-2.59,2.58,2.58,0,0,1,2.46-2.36A2.46,2.46,0,0,1,67.6,34,2.35,2.35,0,0,1,65.19,36.31Z"/></svg>