<svg width="150" height="150" viewBox="0 0 150 150" fill="none" xmlns="http://www.w3.org/2000/svg">
<path d="M6.25 25V62.5H43.75" stroke="#7BAFD4" stroke-width="3" stroke-linecap="round" stroke-linejoin="round"/>
<path d="M143.75 125V87.5H106.25" stroke="#7BAFD4" stroke-width="3" stroke-linecap="round" stroke-linejoin="round"/>
<path d="M128.062 56.2478C124.893 47.2902 119.505 39.2816 112.403 32.9692C105.301 26.6567 96.7158 22.2463 87.4482 20.1494C78.1806 18.0525 68.5328 18.3374 59.4051 20.9776C50.2773 23.6178 41.9672 28.5272 35.25 35.2478L6.25 62.4978M143.75 87.4978L114.75 114.748C108.033 121.468 99.7227 126.378 90.5949 129.018C81.4672 131.658 71.8194 131.943 62.5518 129.846C53.2842 127.749 44.6988 123.339 37.5967 117.026C30.4946 110.714 25.1073 102.705 21.9375 93.7478" stroke="#7BAFD4" stroke-width="3" stroke-linecap="round" stroke-linejoin="round"/>
</svg>
