<svg xmlns="http://www.w3.org/2000/svg" width="89.3mm" height="119.43mm" viewBox="0 0 253.13 338.53">
  <defs>
  <style>
  g{
  fill:#7bafd410;
  transform-origin:center;
  animation-name: horizontalMove;
  animation-duration: 5s;
  animation-iteration-count: infinite;
  animation-timing-function: linear;
  animation-fill-mode: forwards;
  }
  @keyframes horizontalMove {
  0%,100% {
    opacity:0;
  }

  50% {
   opacity:1;
  }
}
  </style>
  </defs>
   <g id="silfen_S1">
    <path d="M1.64,335V206.16a3.49,3.49,0,0,1,3.49-3.49H6.88c42.11,0,84.21.06,126.31-.1,3.91,0,5.52,1.41,7.46,4.66,6.42,10.74,12.45,22,24.49,27.9,6.67,3.25,13.34,4.85,21.09,3.82s15-2.61,21.5-7.17c9.26-6.48,14.48-15.36,16.17-26.33.17-1.06-1.88-3.23-3.27-3.66-20.2-6.15-40.47-12-60.7-18.09-34.39-10.29-69-20-103.08-31.18C31.11,144.13,12.31,127.19,3.46,101c-5.78-17.16-4-34.2,3.18-50.72C16.38,28,33.19,13.48,56,5.7A91,91,0,0,1,85.36.86C132.22.7,179.09.19,226,0c7.36,0,14.72,0,22.51,0a3.34,3.34,0,0,1,3.36,3.34V132.26a3.48,3.48,0,0,1-3.48,3.49h-2.23c-49.59,0-99.19.1-148.78-.11-6.2,0-11.74,1-16.76,4.2a3.45,3.45,0,0,0-.76,5.12c3.93,4.53,9.32,6.89,15.13,8.64q26.83,8.11,53.64,16.24c30.62,9.31,61.21,18.7,91.84,27.94,8.51,2.57,13.49,7.67,12.59,14-.82,5.8-1.8,11.6-3.17,17.29A137.62,137.62,0,0,1,227,278.84,135.14,135.14,0,0,1,183.22,317c-18.3,10.17-38,16.22-58.57,19.33a211.2,211.2,0,0,1-29.54,2.07c-29.29.26-58.58.09-87.87.09H5.13A3.49,3.49,0,0,1,1.64,335Z"/>
  </g>
   
</svg>
