<svg id="logoSVG" version="1.1" xmlns="http://www.w3.org/2000/svg" xmlns:xlink="http://www.w3.org/1999/xlink" x="0px" y="0px" width="424.1px"
height="446.3px" viewBox="0 0 424.1 446.3" style="overflow:visible;enable-background:new 0 0 424.1 446.3;"
xml:space="preserve">

<defs>
<style type="text/css">
.st0{fill:none;}
.logo_s{
fill:#7bafd421;
transform-origin:center;
animation-name: rotating;
animation-duration:60s;
animation-iteration-count:1 ;
animation-timing-function: linear;
animation-fill-mode: forwards; 
}


#logoSVG{
animation-name: appear;
animation-duration: 5s;
animation-iteration-count:12 ;
animation-timing-function: linear;
animation-fill-mode: forwards;  
}

@keyframes appear {
0%,100% {
opacity:.3;
}


50% {
    opacity:.8;}

}

@keyframes rotating {
0% {
transform:rotate(0deg);
}

100% {
transform:rotate(360deg);
}
}
</style>
<script type="text/javascript">

var tiempo= Math.floor(Math.random() * 10)+1+"s";
document.getElementById("logoSVG").style.animationDelay = tiempo;


</script>

</defs>
<g class="wrapper">
<g>
   <path class="logo_s" d="M87.1,388.9V260.1c0-1.9,1.6-3.5,3.5-3.5h1.7c42.1,0,84.2,0.1,126.3-0.1c3.9,0,5.5,1.4,7.5,4.7
       c6.4,10.7,12.4,22,24.5,27.9c6.7,3.3,13.3,4.9,21.1,3.8c7.8-1,15-2.6,21.5-7.2c9.3-6.5,14.5-15.4,16.2-26.3
       c0.2-1.1-1.9-3.2-3.3-3.7c-20.2-6.2-40.5-12-60.7-18.1c-34.4-10.3-69-20-103.1-31.2c-25.7-8.4-44.5-25.3-53.4-51.6
       c-5.8-17.2-4.1-34.2,3.2-50.7c9.7-22.3,26.6-36.8,49.3-44.5c9.5-3.2,19.3-4.8,29.4-4.8c46.9-0.2,93.7-0.7,140.6-0.8
       c7.4,0,14.7,0,22.5,0c1.9,0,3.4,1.5,3.4,3.3v128.9c0,1.9-1.6,3.5-3.5,3.5h-2.2c-49.6,0-99.2,0.1-148.8-0.1c-6.2,0-11.7,1-16.8,4.2
       c-1.7,1.1-2.1,3.6-0.8,5.1c3.9,4.5,9.3,6.9,15.1,8.6c17.9,5.4,35.8,10.8,53.6,16.2c30.6,9.3,61.2,18.7,91.8,27.9
       c8.5,2.6,13.5,7.7,12.6,14c-0.8,5.8-1.8,11.6-3.2,17.3c-4.4,18.1-11.9,34.8-22.9,49.8c-11.7,15.9-26.4,28.5-43.7,38.1
       c-18.3,10.2-38,16.2-58.6,19.3c-9.7,1.5-19.7,2-29.5,2.1c-29.3,0.3-58.6,0.1-87.9,0.1h-2.1C88.7,392.4,87.1,390.8,87.1,388.9z"/>
</g>
<rect class="st0" width="424" height="446"/>
</g>
</svg>
