<svg id="Layer_1" data-name="Layer 1" xmlns="http://www.w3.org/2000/svg" viewBox="0 0 98.93 98.94"><defs><style>.cls-1{fill:#fff;}</style></defs><path d="M98.92,49.56A49.46,49.46,0,1,1,0,49.37C0,23.61,20.65,0,49.56,0A49.3,49.3,0,0,1,98.92,49.56ZM49.43,3.73A45.73,45.73,0,1,0,95.17,49.29,45.66,45.66,0,0,0,49.43,3.73Z"/><path class="cls-1" d="M49.43,3.73A45.73,45.73,0,1,1,3.76,49.65,45.68,45.68,0,0,1,49.43,3.73Zm.16,27.09c-5.64.2-11.3.39-17,.62a12.85,12.85,0,0,0-2.55.36,6,6,0,0,0-4.51,4A10.25,10.25,0,0,0,25,38a85.2,85.2,0,0,0,0,23,10.49,10.49,0,0,0,.75,2.47A5.61,5.61,0,0,0,30,67a29.32,29.32,0,0,0,4.28.56q15.68.72,31.36,0a22.1,22.1,0,0,0,3.14-.4,5.65,5.65,0,0,0,4.55-3.94,21.9,21.9,0,0,0,1.08-5,120.94,120.94,0,0,0,0-17.55,20.93,20.93,0,0,0-.91-4.49,6.14,6.14,0,0,0-5.14-4.46,13.45,13.45,0,0,0-2-.22Z"/><path d="M49.59,30.82l16.71.61a13.45,13.45,0,0,1,2,.22,6.14,6.14,0,0,1,5.14,4.46,20.93,20.93,0,0,1,.91,4.49,120.94,120.94,0,0,1,0,17.55,21.9,21.9,0,0,1-1.08,5,5.65,5.65,0,0,1-4.55,3.94,22.1,22.1,0,0,1-3.14.4q-15.68.77-31.36,0A29.32,29.32,0,0,1,30,67a5.61,5.61,0,0,1-4.23-3.54A10.49,10.49,0,0,1,25,61a85.2,85.2,0,0,1,0-23,10.25,10.25,0,0,1,.62-2.21,6,6,0,0,1,4.51-4,12.85,12.85,0,0,1,2.55-.36C38.29,31.21,44,31,49.59,30.82Zm-5,24.93c2-.58,10.68-5.19,12.83-6.83a2.88,2.88,0,0,0-.58-.62C53,46.19,49.08,44.08,45.19,42c-.2-.11-.52,0-.89,0,0,.82-.14,1.57-.14,2.32,0,3.64.06,7.29.11,10.93C44.27,55.45,44.47,55.6,44.58,55.75Z"/><path class="cls-1" d="M44.58,55.75c-.11-.15-.31-.3-.31-.45-.05-3.64-.09-7.29-.11-10.93,0-.75.09-1.5.14-2.32.37,0,.69-.15.89,0,3.89,2.07,7.77,4.18,11.64,6.29a2.88,2.88,0,0,1,.58.62C55.26,50.56,46.6,55.17,44.58,55.75Z"/></svg>