<svg xmlns="http://www.w3.org/2000/svg" viewBox="0 0 90 90.1"><defs><style>.cls-1{fill:#81b2d5;}.cls-2{fill:#7baed3;}.cls-3{fill:#7bafd3;}</style></defs><g id="Layer_2" data-name="Layer 2"><g id="Layer_1-2" data-name="Layer 1"><path class="cls-1" d="M63.52,27.31C63.08,24,74,13.14,78,13.27A145.6,145.6,0,0,1,63.52,27.31Z"/><path class="cls-1" d="M63.14,62.55c2.77.8,13.22,11.12,13.82,13.65C74.35,76.37,63.21,65.38,63.14,62.55Z"/><path class="cls-1" d="M13,13.41c2.37-.4,13,9.34,14.3,13.35-1-.32-2-.34-2.46-.81C20.86,22.2,17,18.36,13.16,14.52,12.94,14.3,13,13.79,13,13.41Z"/><path class="cls-1" d="M13.07,76.15c1.31-3.8,11.65-13.27,14-12.83C26,66.74,15.33,76.53,13.07,76.15Z"/><path class="cls-2" d="M90,44.74c-4.11,1.65-18.12,1.16-19.92-.91C77.16,44,83.62,43.32,90,44.74Z"/><path class="cls-2" d="M44.68,0c2.11,1.63,2.25,17.38,0,19.68Z"/><path class="cls-2" d="M0,44.38a11.08,11.08,0,0,1,2.35-.54c5-.05,10-.06,15.06,0,.65,0,1.3.67,1.95,1a6.12,6.12,0,0,1-1.93.78q-7.53.09-15.06,0A11.25,11.25,0,0,1,0,45.16Z"/><path class="cls-3" d="M46,90.1c-1.58-1.67-2.4-14.84-1.59-18.33.11-.48.68-.85,1.59-1.89Z"/></g></g></svg>