<svg xmlns="http://www.w3.org/2000/svg" viewBox="0 0 82.94 83.14"><defs><style>.cls-1{fill:#7baed3;}</style></defs><g id="Layer_2" data-name="Layer 2"><g id="Layer_1-2" data-name="Layer 1"><path class="cls-1" d="M.1,41.54C.1,31.26.36,21,0,10.69-.19,4.91,4.67.11,9.59.26,11.41.32,13.24,0,15.07,0c18.65,0,37.3,0,56,0,7.31,0,12,4.58,11.9,12q-.2,29.79,0,59.6c.06,7.37-5.39,11.66-11.65,11.58q-30.33-.37-60.67,0C5.15,83.21-.19,78.66,0,72.64.35,62.29.1,51.91.1,41.54ZM29.18,2.42V80.91h3c13,0,26-.13,38.95.07,5.21.08,9.71-2.76,9.7-9.51,0-20.12,0-40.25,0-60.37,0-5.46-3.28-8.67-8.76-8.67H29.18Zm-2.41.06c-6.18,0-12.1-.17-18,.06A6.69,6.69,0,0,0,2.29,9.33q-.07,32.25,0,64.51c0,3.16,2.65,6.76,5.65,6.91,6.23.31,12.47.09,18.84.09Z"/></g></g></svg>