<svg xmlns="http://www.w3.org/2000/svg" viewBox="0 0 99.41 81.63"><defs><style>.cls-1{fill:#87b6d7;}.cls-2{fill:#85b5d7;}.cls-3{fill:#fefefe;}</style></defs><g id="Layer_2" data-name="Layer 2"><g id="Layer_1-2" data-name="Layer 1"><path class="cls-1" d="M94.22,51.24C92.9,51.13,92,51,91,51,85.68,51,80.31,51,75,51a8.11,8.11,0,0,1-2.37-.11,6.76,6.76,0,0,1-1.75-1.24,16,16,0,0,1,1.78-1.21,2.88,2.88,0,0,1,1.18,0c7.55,0,15.1.06,22.65,0,2.13,0,3,.5,3,2.82-.13,7.73,0,15.48-.1,23.21a8.6,8.6,0,0,1-1,2.73c-.41-1-1.15-1.94-1.17-2.91-.11-6-.05-11.91-.05-17.87V52.66c-2.53,2.25-4.58,4-6.57,5.85-5.11,4.7-10,9.72-15.32,14.1C54,90,21.43,81.21,11.73,55.66c-.27-.71.14-1.68.23-2.54.65.59,1.59,1.05,1.91,1.78,7.05,16.1,20.84,25,38.35,24.28a36,36,0,0,0,23-9.46c6.2-5.57,12.14-11.43,18.18-17.17A8.57,8.57,0,0,0,94.22,51.24Zm.58-.17.11-.13-.18,0Z"/><path class="cls-2" d="M5,31.24H28.78L29,32.31a8.56,8.56,0,0,1-2.57.92c-7.85.07-15.7,0-23.54.06C1,33.29,0,32.66,0,30.73c0-8,0-16.07,0-24.1A7.8,7.8,0,0,1,.66,4.5l1-.15a13.39,13.39,0,0,1,.87,3.17c.08,6,0,11.91,0,17.86V29c2.63-2.36,4.74-4.22,6.82-6.12C14.72,18,19.74,12.7,25.42,8.26,46.26-8,78,.87,87.56,25.56a9.48,9.48,0,0,1,.16,2.89c-.75-.73-1.81-1.32-2.19-2.2-4.82-11-12.72-18.67-24.25-22.09-14-4.16-26.7-1.35-37.62,8.49C17.27,18.42,11,24.39,4.74,30.27Z"/><polygon class="cls-3" points="94.8 51.07 94.73 50.91 94.91 50.94 94.8 51.07"/></g></g></svg>