<svg xmlns="http://www.w3.org/2000/svg" viewBox="0 0 77.34 82.94"><defs><style>.cls-1{fill:#83b3d6;}</style></defs><g id="Layer_2" data-name="Layer 2"><g id="Layer_1-2" data-name="Layer 1"><path class="cls-1" d="M77.31,41.56c0,5.64,0,11.28,0,16.92A9,9,0,0,1,72,67.28c-9.69,4.83-19.39,9.64-29,14.54a9.13,9.13,0,0,1-8.81,0Q19.89,74.6,5.62,67.55C1.85,65.68,0,62.84,0,58.49.12,47,.1,35.49,0,24a8.7,8.7,0,0,1,5.21-8.42C14.83,10.73,24.48,5.94,34.1,1.13a9.41,9.41,0,0,1,9,.05Q57.31,8.4,71.61,15.41c3.93,1.92,5.79,4.88,5.72,9.24C77.25,30.28,77.31,35.92,77.31,41.56ZM37.64,81c.06-.88.15-1.45.15-2,0-13,0-25.92,0-38.88a2.59,2.59,0,0,0-1.72-2.65C25.55,32.25,15,27,4.47,21.7c-.61-.3-1.27-.5-2.14-.84A22,22,0,0,0,1.86,24c0,11.64-.05,23.29,0,34.93A6.85,6.85,0,0,0,6,65.52c9.79,4.8,19.52,9.72,29.28,14.59C36,80.45,36.72,80.67,37.64,81Zm37.23-60.3c-.62.24-1,.33-1.29.49C62.71,26.64,51.86,32.09,41,37.47a2.44,2.44,0,0,0-1.41,2.63q0,19.44,0,38.88c0,.57.07,1.14.13,2a24.42,24.42,0,0,0,2.37-.85q14.73-7.33,29.45-14.72a6.43,6.43,0,0,0,3.74-6.21q0-17.79,0-35.59A21.43,21.43,0,0,0,74.87,20.72Zm-71.33-2a14.15,14.15,0,0,0,1.64,1.22Q21.26,28,37.38,36a2.42,2.42,0,0,0,1.83.25c5.24-2.54,10.45-5.18,15.84-7.87a6.34,6.34,0,0,0-.85-.67Q37.5,19.36,20.79,11.05a2.9,2.9,0,0,0-2.2.09c-2.66,1.22-5.26,2.57-7.87,3.89ZM22,9.38c.9.49,1.53.84,2.17,1.16,9.35,4.68,18.81,9.15,28,14.13,3.84,2.08,6.93,2.32,10.64,0C66.1,22.51,69.82,21,73.68,19a25.94,25.94,0,0,0-2.45-1.69C61.5,12.46,51.8,7.53,42,2.82a7.48,7.48,0,0,0-5.41-.48C31.66,4.36,27,6.92,22,9.38Z"/></g></g></svg>