<svg xmlns="http://www.w3.org/2000/svg" viewBox="0 0 88.34 88.1"><defs><style>.cls-1{fill:#87b6d7;}</style></defs><g id="Layer_2" data-name="Layer 2"><g id="Layer_1-2" data-name="Layer 1"><path class="cls-1" d="M0,87c1.15-1.22,2.28-2.46,3.45-3.67,3.14-3.26,7.49-6,9.12-9.9S13,64.67,13,60.22c0-6.86-.09-13.72.08-20.58a6.45,6.45,0,0,1,1.61-4q14-14.26,28.3-28.3c9.77-9.56,25.85-9.77,36.15-.63C89.65,16,91.45,32,83,42.85a111.25,111.25,0,0,1-9.13,9.69C67,59.48,60.14,66.42,53.13,73.21a7.23,7.23,0,0,1-4.49,1.86c-10.44.16-20.89,0-31.33.17A7,7,0,0,0,13.08,77c-3.37,3-6.46,6.39-9.73,9.55A13.36,13.36,0,0,1,.78,88.1ZM15.27,71.49l46-46,1.21.93a16.18,16.18,0,0,1-1.87,2.88c-8,8-16,16-24,24C36,54,35.29,54.79,34.2,56c6.31,0,11.9,0,17.49,0,5.21,0,11,1.24,15.47-.59s7.51-6.75,11.1-10.4c6-6.09,8.79-13.3,7.35-21.86-1.6-9.45-6.88-16.16-16-19.26S51.9,2.06,44.83,8.8C35.25,17.94,26,27.45,16.7,36.86a4.79,4.79,0,0,0-1.37,3C15.23,50.07,15.27,60.31,15.27,71.49Zm1.83,1.43c11.32,0,21.72,0,32.11,0a2.51,2.51,0,0,0,1.58-.53c4.57-4.51,9.09-9.06,13.67-13.66-.42-.27-.56-.45-.71-.45q-15.33,0-30.68,0A3.23,3.23,0,0,0,31,59C26.56,63.41,22.16,67.85,17.1,72.92Z"/></g></g></svg>