<svg xmlns="http://www.w3.org/2000/svg" viewBox="0 0 71.48 85.38"><defs><style>.cls-1{fill:#82b3d6;}</style></defs><g id="Layer_2" data-name="Layer 2"><g id="Layer_1-2" data-name="Layer 1"><path class="cls-1" d="M0,49.42A34.76,34.76,0,0,1,10.4,24.55C18.14,16.73,26,9,33.68,1.14,35.13-.35,36-.4,37.52,1.11c7.84,8,15.93,15.68,23.64,23.76C71,35.18,73.92,47.53,69.43,60.93s-14.29,21.72-28.49,24C19.26,88.39-.06,71.52,0,49.42ZM36,2.1c-1.15,1.07-1.77,1.61-2.36,2.2-7.07,7.05-14.19,14.05-21.18,21.19C4.8,33.3,1.26,42.57,2.46,53.6A33.44,33.44,0,0,0,43,82.37c24.41-5.58,34.51-35,18.28-54-6-7-12.88-13.21-19.32-19.81C40,6.56,38.09,4.41,36,2.1Z"/></g></g></svg>